<?xml version="1.0" encoding="utf-8"?>
<!-- Generator: Adobe Illustrator 25.0.0, SVG Export Plug-In . SVG Version: 6.00 Build 0)  -->
<svg version="1.1" id="Warstwa_1" xmlns="http://www.w3.org/2000/svg" xmlns:xlink="http://www.w3.org/1999/xlink" x="0px" y="0px"
	 viewBox="0 0 50 50" style="enable-background:new 0 0 50 50;" xml:space="preserve">
<style type="text/css">
	.st0{fill:#FFFFFF;}
</style>
<g>
	<polygon class="st0" points="19.03,11.22 16.78,7.31 14.29,8.75 15.72,11.22 14.71,12.97 12.68,12.97 11.67,11.22 13.09,8.75 
		10.61,7.31 8.35,11.22 11.02,15.84 12.52,15.84 11.57,42.69 15.82,42.69 14.87,15.84 16.36,15.84 	"/>
	<g>
		<polygon class="st0" points="30.25,15.11 29.28,42.69 33.53,42.69 32.55,15.11 		"/>
		<path class="st0" d="M40.75,15.11c-1.24-2.16-3.57-3.63-6.24-3.63H22.76v3.63h14.13c2.02,0,3.79,1.08,4.76,2.69
			C41.53,16.83,41.22,15.93,40.75,15.11z"/>
	</g>
</g>
</svg>
